<svg xmlns="http://www.w3.org/2000/svg" viewBox="0 0 64 64" width="64" height="64">
  <defs>
    <linearGradient id="bg" x1="7" y1="5" x2="58" y2="60" gradientUnits="userSpaceOnUse">
      <stop offset="0" stop-color="#07151c" />
      <stop offset="0.52" stop-color="#0f766e" />
      <stop offset="1" stop-color="#0f172a" />
    </linearGradient>
    <linearGradient id="mast" x1="21" y1="21" x2="45" y2="55" gradientUnits="userSpaceOnUse">
      <stop offset="0" stop-color="#fef3c7" />
      <stop offset="0.42" stop-color="#67e8f9" />
      <stop offset="1" stop-color="#38bdf8" />
    </linearGradient>
    <linearGradient id="wave" x1="16" y1="12" x2="48" y2="34" gradientUnits="userSpaceOnUse">
      <stop offset="0" stop-color="#fbbf24" />
      <stop offset="0.55" stop-color="#67e8f9" />
      <stop offset="1" stop-color="#a7f3d0" />
    </linearGradient>
    <filter id="glow" x="-50%" y="-50%" width="200%" height="200%">
      <feGaussianBlur stdDeviation="1.7" result="blur" />
      <feColorMatrix
        in="blur"
        type="matrix"
        values="0 0 0 0 0.10 0 0 0 0 0.95 0 0 0 0 0.90 0 0 0 0.55 0"
      />
      <feBlend in="SourceGraphic" />
    </filter>
    <filter id="shadow" x="-30%" y="-30%" width="160%" height="160%">
      <feDropShadow dx="0" dy="3" stdDeviation="3" flood-color="#020617" flood-opacity="0.35" />
    </filter>
  </defs>
  <rect width="64" height="64" fill="url(#bg)" />
  <path d="M14 53h36" stroke="#d1fae5" stroke-width="2" stroke-linecap="round" opacity="0.18" />
  <path
    d="M21 53 32 26l11 27M27 43h10"
    fill="none"
    stroke="url(#mast)"
    stroke-width="4.6"
    stroke-linecap="round"
    stroke-linejoin="round"
    filter="url(#shadow)"
  />
  <circle cx="32" cy="26" r="3.9" fill="#fef3c7" filter="url(#glow)" />
  <path
    d="M25 31c3.9-3.5 10.1-3.5 14 0M20 25.5c6.6-5.8 17.4-5.8 24 0M16 20c8.6-7.4 23.4-7.4 32 0"
    fill="none"
    stroke="url(#wave)"
    stroke-width="3"
    stroke-linecap="round"
    opacity="0.94"
  />
  <path
    d="M20 51.5c4.8-6.2 19.2-6.2 24 0"
    fill="none"
    stroke="#f8fafc"
    stroke-width="2.2"
    stroke-linecap="round"
    opacity="0.9"
  />
</svg>
